# xmcd
#
# Track frame offsets: 
#        150
#        32643
#        56108
#        81228
#        98920
#        123440
#        148040
#        169013
#        197513
#        221040
#        245473
#        275438
#
# Disc length: 4035 seconds
#
# Revision: 0
# Processed by: cddbd v1.5.2PL0 Copyright (c) Steve Scherf et al.
# Submitted via: ExactAudioCopy v1.0b3
#
DISCID=ae0fc10c
DTITLE=Bang Chau - Nho Nhau Hoai
DYEAR=1989
DGENRE=
TTITLE0=Nho nhau hoai
TTITLE1=Doi bong
TTITLE2=Bong dem
TTITLE3=Buc tam thu
TTITLE4=Mot lan di
TTITLE5=Nhung nguoi em o lang Dong Son
TTITLE6=Duong ve que huong
TTITLE7=Thu hat cho nguoi
TTITLE8=Trang chien khu
TTITLE9=Kiep tha huong
TTITLE10=Que huong
TTITLE11=Ai tro ve xu Viet
EXTD=
EXTT0=
EXTT1=
EXTT2=
EXTT3=
EXTT4=
EXTT5=
EXTT6=
EXTT7=
EXTT8=
EXTT9=
EXTT10=
EXTT11=
PLAYORDER=
